<svg width="64" height="64" viewBox="0 0 64 64" fill="none" xmlns="http://www.w3.org/2000/svg">
<path d="M45.395 21.3467C35.9147 31.4434 49.432 33.8891 48.1706 30.3841C47.151 27.551 41.3898 32.1239 46.6991 35.1437" stroke="#292929" stroke-linecap="round"/>
<mask id="path-2-inside-1_80_2279" fill="white">
<path fill-rule="evenodd" clip-rule="evenodd" d="M45.1122 22.1362C46.5032 20.8911 47.3786 19.0818 47.3786 17.0681C47.3786 15.0543 46.5032 13.245 45.1122 12C43.7211 13.245 42.8457 15.0543 42.8457 17.0681C42.8457 19.0818 43.7211 20.8911 45.1122 22.1362Z"/>
</mask>
<path d="M45.1122 22.1362L44.4452 22.8813L45.1122 23.4782L45.7791 22.8813L45.1122 22.1362ZM45.1122 12L45.7791 11.2549L45.1122 10.658L44.4452 11.2549L45.1122 12ZM46.3786 17.0681C46.3786 18.7856 45.6333 20.3277 44.4452 21.391L45.7791 22.8813C47.3731 21.4546 48.3786 19.3781 48.3786 17.0681H46.3786ZM44.4452 12.7451C45.6333 13.8085 46.3786 15.3506 46.3786 17.0681H48.3786C48.3786 14.7581 47.3731 12.6816 45.7791 11.2549L44.4452 12.7451ZM43.8457 17.0681C43.8457 15.3506 44.591 13.8085 45.7791 12.7451L44.4452 11.2549C42.8512 12.6816 41.8457 14.7581 41.8457 17.0681H43.8457ZM45.7791 21.391C44.591 20.3277 43.8457 18.7856 43.8457 17.0681H41.8457C41.8457 19.3781 42.8512 21.4546 44.4452 22.8813L45.7791 21.391Z" fill="#292929" mask="url(#path-2-inside-1_80_2279)"/>
<mask id="path-4-inside-2_80_2279" fill="white">
<path fill-rule="evenodd" clip-rule="evenodd" d="M44.6224 21.881C45.4649 20.215 46.9861 18.901 48.9313 18.3797C50.8765 17.8585 52.8507 18.2359 54.4134 19.2573C53.5708 20.9233 52.0497 22.2373 50.1044 22.7586C48.1593 23.2798 46.185 22.9025 44.6224 21.881Z"/>
</mask>
<path d="M44.6224 21.881L43.73 21.4297L43.3261 22.2284L44.0752 22.7181L44.6224 21.881ZM54.4134 19.2573L55.3058 19.7086L55.7097 18.9099L54.9605 18.4202L54.4134 19.2573ZM45.5147 22.3323C46.2343 20.9094 47.5311 19.7902 49.1902 19.3457L48.6725 17.4138C46.4411 18.0117 44.6955 19.5206 43.73 21.4297L45.5147 22.3323ZM49.1902 19.3457C50.8492 18.9011 52.5316 19.222 53.8662 20.0943L54.9605 18.4202C53.1699 17.2498 50.9039 16.8159 48.6725 17.4138L49.1902 19.3457ZM53.521 18.806C52.8014 20.2289 51.5047 21.3481 49.8456 21.7927L50.3632 23.7245C52.5947 23.1266 54.3403 21.6177 55.3058 19.7086L53.521 18.806ZM49.8456 21.7927C48.1866 22.2372 46.5041 21.9164 45.1695 21.044L44.0752 22.7181C45.8659 23.8886 48.1319 24.3224 50.3632 23.7245L49.8456 21.7927Z" fill="#292929" mask="url(#path-4-inside-2_80_2279)"/>
<path d="M9.53248 47.5939C10.8658 46.5939 11.1325 43.2939 9.53245 38.0939C7.64814 31.9698 5.58242 16.9745 16.0824 14.4751C17.2498 14.1972 19.4157 14.7605 20.0824 15.0939M20.0824 15.0939C18.0684 16.3622 16.9456 17.1365 15.0824 19.9754M20.0824 15.0939C22.6322 14.0939 25.2653 14.349 27.5 15.0939M27.5 15.0939C30.5 12.9995 34 11.0004 35 10.5C37.5492 9.22433 41.5 10.4755 40 14.4755C39.0903 16.9015 34.4835 18.4075 31.5326 21.5166M27.5 15.0939C27.5 15.0939 23 18 19.0824 23.4754M24.0326 55.5942C32.1778 47.449 35.1179 46.5942 45.5326 46.5942C47.5326 46.5942 51.0326 43.5942 46.5326 40.5942C42.0326 37.5942 35.6557 40.1554 31.5326 38.0939C24.4759 34.5655 27.0408 26.2491 31.5326 21.5166M31.5326 21.5166C32.9455 25.1585 32.5824 30.4754 29.0326 32.0942" stroke="#292929"/>
</svg>
