<svg width="16" height="16" viewBox="0 0 16 16" fill="none" xmlns="http://www.w3.org/2000/svg">
<path d="M5.68006 7C6.38639 7 6.94927 7.67913 6.93823 8.5C6.93823 9.32678 6.38087 10 5.68006 10C4.99025 10 4.42188 9.32678 4.42188 8.5C4.42188 7.67322 4.97923 7 5.68006 7Z" fill="black"/>
<path d="M10.332 10C9.6422 10 9.07382 9.32678 9.07382 8.5C9.07382 7.67322 9.63116 7 10.332 7C11.0383 7 11.6012 7.67913 11.5902 8.5C11.5902 9.32678 11.0383 10 10.332 10Z" fill="black"/>
<path fill-rule="evenodd" clip-rule="evenodd" d="M12.3161 12.7609C12.3451 12.7839 12.3433 12.832 12.3117 12.8516C12.272 12.8763 12.2322 12.9007 12.1922 12.9247L12.1808 12.9315L12.1752 12.9348C11.9449 13.072 11.7092 13.1967 11.4672 13.3097C11.3653 13.3572 11.2622 13.4027 11.158 13.4462L11.1398 13.4537C11.1143 13.4643 11.0887 13.4747 11.063 13.4851C11.0346 13.4966 11.022 13.5318 11.0359 13.5608C11.0617 13.6141 11.0879 13.6671 11.1145 13.7199C11.1734 13.8368 11.2343 13.9524 11.2969 14.0666L11.3043 14.08C11.4192 14.2888 11.5401 14.4931 11.6666 14.6928L11.6686 14.6959C11.7287 14.7908 11.79 14.8846 11.8526 14.9773C11.8652 14.9963 11.8879 15.0044 11.9087 14.9976C13.2161 14.5665 14.5417 13.9161 15.9103 12.8448C15.9223 12.8354 15.9298 12.8211 15.9311 12.8056C16.2647 9.12662 15.3723 5.93091 13.5655 3.09793C13.5611 3.08846 13.5535 3.08169 13.5447 3.07763C12.5249 2.57884 11.4313 2.21136 10.2879 2.00088C10.2671 1.99682 10.2463 2.00697 10.2356 2.02728C10.0949 2.29392 9.93915 2.64178 9.83006 2.91519C8.60027 2.71894 7.37679 2.71894 6.17221 2.91519C6.0631 2.6357 5.90166 2.29392 5.76038 2.02728C5.74966 2.00765 5.72886 1.9975 5.70803 2.00088C4.56527 2.21068 3.47171 2.57817 2.45129 3.07763C2.44246 3.08169 2.43488 3.08846 2.42986 3.09725C0.355594 6.40058 -0.212633 9.62271 0.0661201 12.8049C0.0673814 12.8205 0.0755799 12.8354 0.086932 12.8448C1.45547 13.9161 2.78114 14.5665 4.08219 14.9976C4.10301 15.0044 4.12507 14.9963 4.13832 14.978C4.20188 14.8855 4.26401 14.7919 4.32467 14.6973L4.32653 14.6944C4.44897 14.5033 4.56538 14.308 4.67537 14.1084L4.67817 14.1033C4.75236 13.9685 4.8236 13.8318 4.89179 13.6932C4.91339 13.6492 4.93467 13.6051 4.95565 13.5608C4.96953 13.5318 4.95628 13.4972 4.92791 13.4857C4.90619 13.4769 4.88452 13.4681 4.86291 13.4591L4.83416 13.4471C4.7437 13.4091 4.65415 13.3695 4.56544 13.3283C4.3402 13.2236 4.12045 13.1088 3.90541 12.9853L3.89763 12.9809C3.86813 12.9639 3.83872 12.9467 3.8094 12.9294L3.80772 12.9284C3.7649 12.9032 3.72227 12.8775 3.67982 12.8516C3.64829 12.832 3.64577 12.7839 3.67477 12.7609C3.70309 12.7383 3.77708 12.6531 3.86576 12.5474L3.87909 12.5315C3.92669 12.4746 3.97796 12.4126 4.02833 12.3517C4.16019 12.1923 4.28587 12.0403 4.32328 12.0074C4.33777 11.9946 4.35796 11.9919 4.375 12C4.5421 12.0813 4.70721 12.1574 4.87058 12.2283C5.03424 12.2993 5.19615 12.3651 5.35656 12.4257L5.35766 12.4261C5.57104 12.5066 5.78175 12.5778 5.99039 12.6398C7.35158 13.0443 8.62437 13.0551 9.97043 12.6749C10.193 12.612 10.4176 12.5385 10.6449 12.4542L10.6479 12.4531C10.7965 12.398 10.9463 12.3383 11.0974 12.2741C11.2993 12.1882 11.5036 12.0943 11.7109 11.9922C11.728 11.9834 11.7482 11.9861 11.7633 11.999C11.7785 12.0123 11.8047 12.0455 11.8378 12.0911L11.8411 12.0955C11.8908 12.1642 11.9555 12.2595 12.0215 12.3568C12.1444 12.538 12.2719 12.7258 12.3161 12.7609ZM11.0277 3.55652C11.575 3.70977 12.1073 3.90384 12.6208 4.13503C14.0556 6.50277 14.7907 9.12457 14.6276 12.1192C14.3102 12.3463 13.9959 12.549 13.684 12.7306C13.6656 12.4076 13.5382 12.0905 13.3073 11.8435L13.3024 11.8368C13.2648 11.7842 13.2156 11.7123 13.1551 11.623L13.138 11.5979C13.0864 11.5218 13.0269 11.4341 12.975 11.3605C12.9463 11.3197 12.9116 11.2714 12.876 11.2252C12.8582 11.2022 12.834 11.1716 12.8058 11.1387C12.7841 11.1134 12.7299 11.0512 12.6543 10.9848L12.646 10.9775L12.6376 10.9703C12.2367 10.6296 11.6394 10.5194 11.1099 10.7834C9.95159 11.3532 8.97774 11.6004 8.05233 11.6019C7.12531 11.6034 6.14213 11.3586 4.96579 10.7861L4.9558 10.7813C4.45031 10.5404 3.84987 10.6245 3.4298 10.9954C3.37969 11.0397 3.34094 11.0801 3.32461 11.0973C3.30293 11.1202 3.28299 11.1422 3.26687 11.1604C3.23453 11.1968 3.20017 11.237 3.16841 11.2746C3.11324 11.3399 3.04827 11.4185 2.98759 11.4919L2.96029 11.5249C2.88844 11.6117 2.82468 11.6885 2.77485 11.7467C2.76118 11.7626 2.75052 11.7749 2.74257 11.7839C2.47021 12.041 2.3256 12.3814 2.30671 12.727C1.99761 12.5466 1.68595 12.3455 1.37118 12.1204C1.23329 9.49458 1.75092 6.85676 3.37801 4.13364C3.89227 3.90209 4.42507 3.70797 4.97274 3.55495L5.31171 4.42319L6.3893 4.24763C7.44864 4.07503 8.52697 4.07432 9.61731 4.24832L10.6837 4.41851L11.0277 3.55652Z" fill="black"/>
</svg>
