<svg width="40" height="40" viewBox="0 0 40 40" fill="none" xmlns="http://www.w3.org/2000/svg">
<path d="M25.4946 17.9517C26.6156 17.3045 27.5225 16.3923 28.0454 15.3705C28.5602 14.3647 28.7825 13.0524 28.1039 11.877C27.4253 10.7016 26.1776 10.2379 25.0491 10.1808C23.9028 10.1228 22.6594 10.4521 21.5384 11.0993C20.4173 11.7465 19.5105 12.6587 18.9876 13.6805C18.4728 14.6863 18.2505 15.9987 18.9291 17.174C19.6077 18.3494 20.8554 18.8131 21.9838 18.8702C23.1301 18.9282 24.3736 18.5989 25.4946 17.9517Z" stroke="#74058E" stroke-width="3"/>
<path d="M25.65 25.9589C26.6734 25.4149 27.7221 25.024 28.6203 24.8594C29.0605 24.7788 29.552 24.7359 30.021 24.8093C30.4578 24.8777 31.1958 25.1063 31.5972 25.8615C31.9986 26.6166 31.7753 27.3562 31.5876 27.7566C31.3861 28.1864 31.0756 28.5698 30.7625 28.8895C30.1237 29.542 29.213 30.1926 28.1897 30.7366C27.1663 31.2806 26.1176 31.6715 25.2194 31.836C24.7792 31.9167 24.2877 31.9596 23.8188 31.8862C23.3819 31.8178 22.6439 31.5892 22.2425 30.834C21.8411 30.0789 22.0644 29.3393 22.2521 28.9389C22.4536 28.5091 22.7641 28.1257 23.0772 27.8059C23.716 27.1534 24.6267 26.5028 25.65 25.9589Z" stroke="#74058E" stroke-width="3"/>
<path d="M14.8733 19.158C15.9472 19.778 16.8721 20.5654 17.4787 21.3963C17.7808 21.81 18.047 22.2935 18.1759 22.8218C18.3072 23.3602 18.3117 24.0332 17.9469 24.6651C17.5821 25.2969 16.997 25.6296 16.465 25.785C15.9432 25.9375 15.3913 25.9487 14.882 25.894C13.8591 25.7841 12.7148 25.3768 11.6408 24.7567C10.5669 24.1367 9.64202 23.3494 9.03538 22.5184C8.73334 22.1047 8.4671 21.6212 8.33825 21.093C8.2069 20.5546 8.20238 19.8815 8.56717 19.2497C8.93197 18.6178 9.51713 18.2852 10.0491 18.1298C10.571 17.9772 11.1228 17.9661 11.6321 18.0208C12.655 18.1307 13.7994 18.538 14.8733 19.158Z" stroke="#74058E" stroke-width="3"/>
</svg>
