<svg width="64" height="64" viewBox="0 0 64 64" fill="none" xmlns="http://www.w3.org/2000/svg">
<g clip-path="url(#clip0_80_2294)">
<path d="M12.0561 32.0954C15.5107 32.3503 21.3395 31.8227 23.7895 30.7772C27.9888 28.9853 31.9916 19.5958 32.3052 17.933C32.9132 14.7082 35.699 15.3576 36.6295 15.6449C37.56 15.9322 39.4052 18.2446 37.7689 23.4801M38.8903 21.3347C38.4383 19.1016 38.0656 17.2437 38.9125 16.2203C40.4305 14.3859 43.3208 15.4838 44.3836 17.9686C44.9139 19.2083 45.4644 21.3541 45.6264 23.7186" stroke="#292929"/>
<path d="M12.8835 54.7576C24.5495 55.1962 40.5057 54.6419 46.4516 44.4592C49.8425 38.652 48.4672 21.1369 41.2975 20.748C39.5289 20.6521 38.2061 21.4432 37.8678 23.7159" stroke="#292929"/>
<path d="M43.6336 40.6342C44.5865 35.5969 42.6784 27.2513 39.9401 24.8727C37.4935 22.7475 35.2473 23.6897 34.5589 26.4211C34.2521 27.6381 35.1327 31.4613 35.0069 34.7121C34.9266 36.7874 32.7388 37.4646 30.6997 37.07C27.8374 36.5162 25.1056 36.9738 22.7577 37.8959" stroke="#292929"/>
<path d="M39.7222 11.0574C38.5591 13.5097 38.0768 15.4634 38.056 17" stroke="#292929" stroke-linecap="round"/>
<mask id="path-5-inside-1_80_2294" fill="white">
<path fill-rule="evenodd" clip-rule="evenodd" d="M39.6909 11.9822C40.7312 10.2052 41.0397 8.00968 40.3598 5.89504C39.6799 3.7804 38.1498 2.17604 36.2687 1.3383C35.2283 3.11534 34.9199 5.31084 35.5998 7.42549C36.2797 9.54012 37.8098 11.1445 39.6909 11.9822Z"/>
</mask>
<path d="M39.6909 11.9822L39.284 12.8957L40.1016 13.2599L40.5538 12.4875L39.6909 11.9822ZM36.2687 1.3383L36.6755 0.424797L35.8579 0.0606707L35.4057 0.833057L36.2687 1.3383ZM39.4078 6.20112C39.997 8.03372 39.7306 9.93503 38.8279 11.477L40.5538 12.4875C41.7319 10.4753 42.0824 7.98564 41.3118 5.58895L39.4078 6.20112ZM35.8619 2.2518C37.4941 2.97872 38.8186 4.36853 39.4078 6.20112L41.3118 5.58895C40.5412 3.19228 38.8054 1.37337 36.6755 0.424797L35.8619 2.2518ZM36.5518 7.1194C35.9626 5.2868 36.2289 3.38549 37.1317 1.84354L35.4057 0.833057C34.2277 2.84519 33.8772 5.33488 34.6478 7.73157L36.5518 7.1194ZM40.0977 11.0687C38.4655 10.3418 37.141 8.95199 36.5518 7.1194L34.6478 7.73157C35.4183 10.1282 37.1541 11.9472 39.284 12.8957L40.0977 11.0687Z" fill="#292929" mask="url(#path-5-inside-1_80_2294)"/>
<mask id="path-7-inside-2_80_2294" fill="white">
<path fill-rule="evenodd" clip-rule="evenodd" d="M48.4857 5.81919C46.4999 5.27418 44.2994 5.5445 42.4328 6.74854C40.5662 7.95257 39.4125 9.8458 39.0902 11.8796C41.0759 12.4246 43.2765 12.1543 45.1431 10.9502C47.0097 9.74622 48.1634 7.85299 48.4857 5.81919Z"/>
</mask>
<path d="M48.4857 5.81919L49.4734 5.97573L49.6135 5.09174L48.7504 4.85485L48.4857 5.81919ZM39.0902 11.8796L38.1025 11.7231L37.9624 12.607L38.8255 12.8439L39.0902 11.8796ZM42.9748 7.58888C44.5925 6.54544 46.498 6.31062 48.221 6.78353L48.7504 4.85485C46.5019 4.23774 44.0063 4.54357 41.8907 5.90819L42.9748 7.58888ZM40.0778 12.0361C40.3575 10.2714 41.3572 8.63232 42.9748 7.58888L41.8907 5.90819C39.7752 7.27281 38.4675 9.4202 38.1025 11.7231L40.0778 12.0361ZM44.601 10.1099C42.9834 11.1533 41.0779 11.3882 39.3548 10.9153L38.8255 12.8439C41.074 13.461 43.5695 13.1552 45.6851 11.7906L44.601 10.1099ZM47.498 5.66265C47.2183 7.42739 46.2187 9.06646 44.601 10.1099L45.6851 11.7906C47.8007 10.426 49.1084 8.27858 49.4734 5.97573L47.498 5.66265Z" fill="#292929" mask="url(#path-7-inside-2_80_2294)"/>
</g>
<defs>
<clipPath id="clip0_80_2294">
<rect width="64" height="64" fill="white"/>
</clipPath>
</defs>
</svg>
