<svg width="16" height="16" viewBox="0 0 16 16" fill="none" xmlns="http://www.w3.org/2000/svg">
<path d="M14.8581 1.00829C14.5922 0.98087 14.3031 1.02124 14.0126 1.13286C13.6526 1.27054 8.01027 3.57768 2.75064 5.72992L1.01274 6.4409C0.339779 6.70614 0 7.1375 0 7.71854C0 8.12534 0.177116 8.67712 1.02211 9.00225L3.95561 10.1447C4.20927 10.8844 4.79843 12.6019 4.94647 13.0585C5.03449 13.3292 5.25681 14.0111 5.81854 14.1705C5.93377 14.2086 6.05401 14.2283 6.17644 14.2283C6.53092 14.2283 6.78616 14.0679 6.91099 13.9745L8.77548 12.4417L11.0401 14.4774C11.1273 14.5637 11.589 15 12.2091 15C12.9829 15 13.5698 14.3739 13.6923 13.7679C13.7587 13.4358 15.9428 2.7781 15.9428 2.77966C16.1388 1.92483 15.7863 1.48139 15.5599 1.29238C15.3658 1.13098 15.1241 1.03571 14.8581 1.00829ZM14.3283 2.68851C14.0267 4.1586 12.3822 12.1829 12.1325 13.3395L8.82237 10.3634L6.57653 12.2123L7.19855 9.84692C7.19855 9.84692 11.4896 5.62478 11.748 5.37899C11.9561 5.1822 11.9997 5.11322 11.9997 5.04477C11.9997 4.95376 11.9515 4.88829 11.8403 4.88829C11.7402 4.88829 11.6044 4.98146 11.5324 5.02502C10.6175 5.57946 6.72172 7.73687 4.80424 8.79716L2.02235 7.71702L3.37266 7.16555C6.81266 5.75769 12.9392 3.2501 14.3283 2.68851Z" fill="black"/>
</svg>
