<svg width="64" height="64" viewBox="0 0 64 64" fill="none" xmlns="http://www.w3.org/2000/svg">
<g clip-path="url(#clip0_80_2301)">
<path d="M6.34334 25.1624C9.78826 26.575 18.0925 27.1432 22.9145 22.4141C28.9421 16.5028 30.2421 10.1287 30.8822 8.11678C31.5224 6.10488 33.8722 5.76431 35.1119 7.50375C36.3515 9.2432 35.5412 13.1988 34.506 15.7478C33.6779 17.7869 32.6808 19.3708 32.2858 19.9078C33.2415 19.3695 35.8246 17.3799 38.5108 13.728C41.8685 9.16321 42.8084 9.02699 44.3681 9.76048C45.9279 10.494 46.7725 12.7704 44.5999 15.7241C42.8619 18.0871 39.4306 21.9909 37.9322 23.6474C39.9346 22.6375 44.9408 21.7679 48.9458 26.3691C53.952 32.1206 48.4148 35.0822 47.6724 34.9499C46.9299 34.8176 45.3702 34.0841 44.2531 31.6072C43.136 29.1303 39.6215 28.2004 37.5238 31.623C28.1449 46.9258 25.0774 39.0398 32.603 44.101C35.5386 46.0753 38.6489 43.583 40.7059 45.9237C42.7629 48.2643 39.3358 51.0302 36.121 51.9759C32.9062 52.9217 27.9197 51.4266 21.5932 47.6505C16.7394 44.7533 8.23786 43.7866 7.60447 44.838" stroke="#292929"/>
<path d="M56.3018 39.8674C56.6815 40.5771 57.0822 42.8306 55.6477 46.1669C54.2132 49.5032 50.623 50.8954 49.0072 51.1745M60.021 46.621C59.8171 47.4935 58.89 49.6537 56.8134 51.3148C54.7367 52.9758 53.5448 53.3213 53.2084 53.2863" stroke="#292929"/>
<circle cx="6.875" cy="6.875" r="6.375" transform="matrix(-0.407889 -0.913032 -0.913032 0.407889 53.707 44.5303)" stroke="#292929"/>
<path d="M45.5497 44.1956C45.0913 44.3162 44.6638 44.3418 44.2671 44.2725C43.8704 44.2032 43.5293 44.0385 43.2437 43.7787C42.9625 43.5114 42.7623 43.1515 42.6432 42.6989L42.586 42.4813L43.5172 42.2363L43.5745 42.4539C43.6875 42.8833 43.8999 43.1717 44.2117 43.3192C44.5293 43.4652 44.9028 43.4817 45.3322 43.3687C45.7674 43.2542 46.0715 43.078 46.2447 42.8401C46.4163 42.5964 46.464 42.3295 46.3876 42.0394C46.3372 41.8479 46.2438 41.705 46.1073 41.6106C45.9766 41.5147 45.8063 41.4571 45.5965 41.4379C45.3852 41.4128 45.1377 41.4035 44.854 41.4099L44.5113 41.4163C44.0981 41.4258 43.7318 41.4012 43.4124 41.3425C43.0914 41.2781 42.8228 41.1533 42.6066 40.9683C42.3904 40.7832 42.2357 40.5137 42.1426 40.1597C42.0479 39.8 42.054 39.4695 42.1609 39.1684C42.2678 38.8673 42.4596 38.6059 42.7363 38.3842C43.013 38.1625 43.3631 37.9959 43.7867 37.8844C44.2103 37.773 44.6065 37.7463 44.9754 37.8043C45.3502 37.8608 45.6707 38.006 45.937 38.24C46.2091 38.4724 46.4016 38.8033 46.5146 39.2327L46.597 39.546L45.6657 39.791L45.5833 39.4777C45.5146 39.2166 45.4037 39.0193 45.2507 38.8859C45.1035 38.7509 44.9214 38.6716 44.7042 38.6481C44.4929 38.6231 44.2596 38.6441 44.0043 38.7113C43.6329 38.809 43.3663 38.9629 43.2044 39.173C43.0411 39.3773 42.9952 39.6158 43.067 39.8886C43.1159 40.0742 43.1998 40.2166 43.3189 40.3155C43.4423 40.4071 43.601 40.4678 43.7949 40.4974C43.9888 40.527 44.2211 40.5372 44.4916 40.5281L44.8343 40.5217C45.2518 40.5049 45.6297 40.5264 45.9681 40.5863C46.3049 40.6404 46.588 40.7613 46.8173 40.9491C47.0525 41.1354 47.2182 41.4113 47.3143 41.7769C47.4105 42.1425 47.4017 42.486 47.2878 42.8076C47.1796 43.1276 46.9779 43.4103 46.6826 43.6555C46.3858 43.8949 46.0081 44.0749 45.5497 44.1956ZM45.3482 45.1979L43.2136 37.086L44.0753 36.8593L46.2098 44.9711L45.3482 45.1979Z" fill="#292929"/>
</g>
<defs>
<clipPath id="clip0_80_2301">
<rect width="64" height="64" fill="white"/>
</clipPath>
</defs>
</svg>
