<svg width="24" height="24" viewBox="0 0 24 24" fill="none" xmlns="http://www.w3.org/2000/svg">
<path d="M2 6C2 4.89543 2.89543 4 4 4H5.07418C6.34637 4 7.60688 3.75725 8.78808 3.28477L11.2572 2.29711C11.734 2.10638 12.266 2.10638 12.7428 2.29711L15.2119 3.28477C16.3931 3.75725 17.6536 4 18.9258 4H20C21.1046 4 22 4.89543 22 6V11.3381C22 14.8507 20.157 18.1058 17.145 19.913L13.029 22.3826C12.3956 22.7626 11.6044 22.7626 10.971 22.3826L6.85504 19.913C3.84299 18.1058 2 14.8507 2 11.3381V6Z" fill="#2FAD23"/>
<rect x="8.00781" y="9.9375" width="6" height="2" rx="1" transform="rotate(45 8.00781 9.9375)" fill="white"/>
<rect width="8.98523" height="2" rx="1" transform="matrix(-0.707107 0.707107 0.707107 0.707107 15.957 8)" fill="white"/>
</svg>
