<svg width="16" height="16" viewBox="0 0 16 16" fill="none" xmlns="http://www.w3.org/2000/svg">
<path d="M15.6668 2.8724C15.6669 2.75465 15.6357 2.63898 15.5766 2.53717C15.5174 2.43536 15.4323 2.35105 15.33 2.29282C15.2276 2.2346 15.1117 2.20454 14.9939 2.20571C14.8762 2.20688 14.7608 2.23924 14.6596 2.29948C14.2694 2.53174 13.8493 2.70961 13.411 2.82815C12.785 2.29097 11.9865 1.99702 11.1616 2.00002C10.2567 2.00106 9.38756 2.35375 8.73778 2.98361C8.088 3.61347 7.70843 4.4712 7.67922 5.37568C5.89521 5.09118 4.27831 4.16003 3.13685 2.75977C3.06808 2.67633 2.98024 2.61065 2.88076 2.56827C2.78128 2.52589 2.67306 2.50805 2.56524 2.51627C2.45748 2.52514 2.3535 2.56013 2.2623 2.61821C2.1711 2.67629 2.09542 2.75571 2.0418 2.8496C1.76682 3.32948 1.60889 3.86744 1.58083 4.41981C1.55278 4.97217 1.65539 5.52337 1.88034 6.02864L1.87904 6.02994C1.77794 6.09221 1.6945 6.17937 1.63671 6.2831C1.57892 6.38683 1.54871 6.50365 1.54896 6.62239C1.54774 6.72034 1.55361 6.81825 1.56654 6.91536C1.63463 7.7542 2.0064 8.53939 2.61211 9.12369C2.57102 9.20197 2.54594 9.28766 2.53834 9.37574C2.53074 9.46383 2.54077 9.55254 2.56784 9.63671C2.83192 10.4595 3.39351 11.1541 4.14271 11.5846C3.38154 11.879 2.55966 11.9816 1.74948 11.8835C1.59953 11.8646 1.44763 11.8973 1.31871 11.9762C1.18979 12.0551 1.0915 12.1754 1.03996 12.3175C0.988417 12.4595 0.986688 12.6149 1.03506 12.7581C1.08342 12.9013 1.17901 13.0237 1.30615 13.1055C2.69954 14.0029 4.32193 14.48 5.97933 14.4798C7.85883 14.501 9.69264 13.9004 11.1955 12.7715C12.6983 11.6425 13.786 10.0486 14.2892 8.2376C14.5246 7.44869 14.6447 6.62992 14.646 5.80664C14.646 5.76302 14.646 5.7181 14.6453 5.67318C14.9934 5.2978 15.263 4.85672 15.4384 4.37578C15.6138 3.89484 15.6915 3.38373 15.6668 2.8724ZM13.4624 5.01368C13.3523 5.14391 13.2965 5.31154 13.3068 5.48178C13.3133 5.59178 13.3126 5.70244 13.3126 5.80664C13.3113 6.50234 13.2093 7.19418 13.0099 7.86068C12.5989 9.40161 11.6827 10.76 10.408 11.7184C9.13324 12.6768 7.57378 13.1797 5.97933 13.1465C5.40658 13.1467 4.83581 13.0794 4.27881 12.946C4.98908 12.7171 5.6532 12.3642 6.24039 11.9037C6.34854 11.8185 6.4277 11.702 6.46699 11.57C6.50628 11.4381 6.50378 11.2973 6.45984 11.1668C6.41591 11.0364 6.33268 10.9227 6.22158 10.8414C6.11048 10.7602 5.97696 10.7153 5.83933 10.7129C5.28521 10.7043 4.75608 10.4809 4.36341 10.0898C4.46303 10.071 4.56199 10.0475 4.66029 10.0195C4.8043 9.97855 4.93032 9.89028 5.01807 9.76896C5.10581 9.64764 5.15017 9.50032 5.14401 9.35072C5.13785 9.20112 5.08151 9.05794 4.98408 8.94425C4.88666 8.83056 4.7538 8.75297 4.60691 8.72396C4.28527 8.66044 3.98261 8.5236 3.72245 8.32408C3.4623 8.12457 3.25166 7.86774 3.10691 7.57357C3.22739 7.59001 3.34865 7.60023 3.47019 7.60417C3.61458 7.60635 3.75592 7.56255 3.87377 7.47911C3.99163 7.39566 4.07989 7.27689 4.12579 7.13998C4.16977 7.00182 4.16751 6.85309 4.11934 6.71633C4.07117 6.57958 3.97972 6.46226 3.85886 6.38216C3.56563 6.18681 3.32542 5.92178 3.15977 5.6108C2.99411 5.29982 2.90817 4.95261 2.90964 4.60027C2.90964 4.556 2.91094 4.51173 2.91355 4.46811C4.40772 5.86161 6.34576 6.68308 8.38621 6.78777C8.48921 6.79183 8.59178 6.77243 8.68618 6.73104C8.78058 6.68964 8.86435 6.62734 8.93114 6.54884C8.99726 6.46957 9.04408 6.37604 9.06791 6.27561C9.09174 6.17518 9.09193 6.07058 9.06847 5.97006C9.03035 5.81097 9.0109 5.64798 9.01053 5.48438C9.01114 4.91407 9.23796 4.3673 9.64123 3.96403C10.0445 3.56076 10.5913 3.33394 11.1616 3.33334C11.455 3.33255 11.7454 3.3926 12.0145 3.5097C12.2835 3.6268 12.5254 3.7984 12.7247 4.01368C12.8016 4.0964 12.8984 4.15807 13.0059 4.19283C13.1133 4.22759 13.2279 4.23428 13.3387 4.21227C13.6125 4.15897 13.8824 4.0872 14.1466 3.99743C13.9664 4.36608 13.7362 4.70806 13.4624 5.01368Z" fill="black"/>
</svg>
