<svg width="48" height="48" viewBox="0 0 48 48" fill="none" xmlns="http://www.w3.org/2000/svg">
<rect width="48" height="48" rx="24" fill="#292929"/>
<path d="M21.6801 23C22.3864 23 22.9493 23.6791 22.9382 24.5C22.9382 25.3268 22.3809 26 21.6801 26C20.9903 26 20.4219 25.3268 20.4219 24.5C20.4219 23.6732 20.9792 23 21.6801 23Z" fill="white"/>
<path d="M26.332 26C25.6422 26 25.0738 25.3268 25.0738 24.5C25.0738 23.6732 25.6312 23 26.332 23C27.0383 23 27.6012 23.6791 27.5902 24.5C27.5902 25.3268 27.0383 26 26.332 26Z" fill="white"/>
<path fill-rule="evenodd" clip-rule="evenodd" d="M28.3161 28.7609C28.3451 28.7839 28.3433 28.832 28.3117 28.8516C28.272 28.8763 28.2322 28.9007 28.1922 28.9247L28.1808 28.9315L28.1752 28.9348C27.9449 29.072 27.7092 29.1967 27.4672 29.3097C27.3653 29.3572 27.2622 29.4027 27.158 29.4462L27.1398 29.4537C27.1143 29.4643 27.0887 29.4747 27.063 29.4851C27.0346 29.4966 27.022 29.5318 27.0359 29.5608C27.0617 29.6141 27.0879 29.6671 27.1145 29.7199C27.1734 29.8368 27.2343 29.9524 27.2969 30.0666L27.3043 30.08C27.4192 30.2888 27.5401 30.4931 27.6666 30.6928L27.6686 30.6959C27.7287 30.7908 27.79 30.8846 27.8526 30.9773C27.8652 30.9963 27.8879 31.0044 27.9087 30.9976C29.2161 30.5665 30.5417 29.9161 31.9103 28.8448C31.9223 28.8354 31.9298 28.8211 31.9311 28.8056C32.2647 25.1266 31.3723 21.9309 29.5655 19.0979C29.5611 19.0885 29.5535 19.0817 29.5447 19.0776C28.5249 18.5788 27.4313 18.2114 26.2879 18.0009C26.2671 17.9968 26.2463 18.007 26.2356 18.0273C26.0949 18.2939 25.9392 18.6418 25.8301 18.9152C24.6003 18.7189 23.3768 18.7189 22.1722 18.9152C22.0631 18.6357 21.9017 18.2939 21.7604 18.0273C21.7497 18.0076 21.7289 17.9975 21.708 18.0009C20.5653 18.2107 19.4717 18.5782 18.4513 19.0776C18.4425 19.0817 18.4349 19.0885 18.4299 19.0973C16.3556 22.4006 15.7874 25.6227 16.0661 28.8049C16.0674 28.8205 16.0756 28.8354 16.0869 28.8448C17.4555 29.9161 18.7811 30.5665 20.0822 30.9976C20.103 31.0044 20.1251 30.9963 20.1383 30.978C20.2019 30.8855 20.264 30.7919 20.3247 30.6973L20.3265 30.6944C20.449 30.5033 20.5654 30.308 20.6754 30.1084L20.6782 30.1033C20.7524 29.9685 20.8236 29.8318 20.8918 29.6932C20.9134 29.6492 20.9347 29.6051 20.9557 29.5608C20.9695 29.5318 20.9563 29.4972 20.9279 29.4857C20.9062 29.4769 20.8845 29.4681 20.8629 29.4591L20.8342 29.4471C20.7437 29.4091 20.6541 29.3695 20.5654 29.3283C20.3402 29.2236 20.1204 29.1088 19.9054 28.9853L19.8976 28.9809C19.8681 28.9639 19.8387 28.9467 19.8094 28.9294L19.8077 28.9284C19.7649 28.9032 19.7223 28.8775 19.6798 28.8516C19.6483 28.832 19.6458 28.7839 19.6748 28.7609C19.7031 28.7383 19.7771 28.6531 19.8658 28.5474L19.8791 28.5315C19.9267 28.4746 19.978 28.4126 20.0283 28.3517C20.1602 28.1923 20.2859 28.0403 20.3233 28.0074C20.3378 27.9946 20.358 27.9919 20.375 28C20.5421 28.0813 20.7072 28.1574 20.8706 28.2283C21.0342 28.2993 21.1962 28.3651 21.3566 28.4257L21.3577 28.4261C21.571 28.5066 21.7818 28.5778 21.9904 28.6398C23.3516 29.0443 24.6244 29.0551 25.9704 28.6749C26.193 28.612 26.4176 28.5385 26.6449 28.4542L26.6479 28.4531C26.7965 28.398 26.9463 28.3383 27.0974 28.2741C27.2993 28.1882 27.5036 28.0943 27.7109 27.9922C27.728 27.9834 27.7482 27.9861 27.7633 27.999C27.7785 28.0123 27.8047 28.0455 27.8378 28.0911L27.8411 28.0955C27.8908 28.1642 27.9555 28.2595 28.0215 28.3568C28.1444 28.538 28.2719 28.7258 28.3161 28.7609ZM27.0277 19.5565C27.575 19.7098 28.1073 19.9038 28.6208 20.135C30.0556 22.5028 30.7907 25.1246 30.6276 28.1192C30.3102 28.3463 29.9959 28.549 29.684 28.7306C29.6656 28.4076 29.5382 28.0905 29.3073 27.8435L29.3024 27.8368C29.2648 27.7842 29.2156 27.7123 29.1551 27.623L29.138 27.5979C29.0864 27.5218 29.0269 27.4341 28.975 27.3605C28.9463 27.3197 28.9116 27.2714 28.876 27.2252C28.8582 27.2022 28.834 27.1716 28.8058 27.1387C28.7841 27.1134 28.7299 27.0512 28.6543 26.9848L28.646 26.9775L28.6376 26.9703C28.2367 26.6296 27.6394 26.5194 27.1099 26.7834C25.9516 27.3532 24.9777 27.6004 24.0523 27.6019C23.1253 27.6034 22.1421 27.3586 20.9658 26.7861L20.9558 26.7813C20.4503 26.5404 19.8499 26.6245 19.4298 26.9954C19.3797 27.0397 19.3409 27.0801 19.3246 27.0973C19.3029 27.1202 19.283 27.1422 19.2669 27.1604C19.2345 27.1968 19.2002 27.237 19.1684 27.2746C19.1132 27.3399 19.0483 27.4185 18.9876 27.4919L18.9603 27.5249C18.8884 27.6117 18.8247 27.6885 18.7749 27.7467C18.7612 27.7626 18.7505 27.7749 18.7426 27.7839C18.4702 28.041 18.3256 28.3814 18.3067 28.727C17.9976 28.5466 17.686 28.3455 17.3712 28.1204C17.2333 25.4946 17.7509 22.8568 19.378 20.1336C19.8923 19.9021 20.4251 19.708 20.9727 19.5549L21.3117 20.4232L22.3893 20.2476C23.4486 20.075 24.527 20.0743 25.6173 20.2483L26.6837 20.4185L27.0277 19.5565Z" fill="white"/>
</svg>
