<svg width="48" height="48" viewBox="0 0 48 48" fill="none" xmlns="http://www.w3.org/2000/svg">
<rect width="48" height="48" rx="24" fill="#292929"/>
<path d="M30.8581 17.0083C30.5922 16.9809 30.3031 17.0212 30.0126 17.1329C29.6526 17.2705 24.0103 19.5777 18.7506 21.7299L17.0127 22.4409C16.3398 22.7061 16 23.1375 16 23.7185C16 24.1253 16.1771 24.6771 17.0221 25.0022L19.9556 26.1447C20.2093 26.8844 20.7984 28.6019 20.9465 29.0585C21.0345 29.3292 21.2568 30.0111 21.8185 30.1705C21.9338 30.2086 22.054 30.2283 22.1764 30.2283C22.5309 30.2283 22.7862 30.0679 22.911 29.9745L24.7755 28.4417L27.0401 30.4774C27.1273 30.5637 27.589 31 28.2091 31C28.9829 31 29.5698 30.3739 29.6923 29.7679C29.7587 29.4358 31.9428 18.7781 31.9428 18.7797C32.1388 17.9248 31.7863 17.4814 31.5599 17.2924C31.3658 17.131 31.1241 17.0357 30.8581 17.0083ZM30.3283 18.6885C30.0267 20.1586 28.3822 28.1829 28.1325 29.3395L24.8224 26.3634L22.5765 28.2123L23.1986 25.8469C23.1986 25.8469 27.4896 21.6248 27.748 21.379C27.9561 21.1822 27.9997 21.1132 27.9997 21.0448C27.9997 20.9538 27.9515 20.8883 27.8403 20.8883C27.7402 20.8883 27.6044 20.9815 27.5324 21.025C26.6175 21.5795 22.7217 23.7369 20.8042 24.7972L18.0223 23.717L19.3727 23.1656C22.8127 21.7577 28.9392 19.2501 30.3283 18.6885Z" fill="white"/>
</svg>
