<svg width="48" height="48" viewBox="0 0 48 48" fill="none" xmlns="http://www.w3.org/2000/svg">
<rect width="48" height="48" rx="24" fill="#292929"/>
<path d="M31.6668 18.8724C31.6669 18.7546 31.6357 18.639 31.5766 18.5372C31.5174 18.4354 31.4323 18.351 31.33 18.2928C31.2276 18.2346 31.1117 18.2045 30.9939 18.2057C30.8762 18.2069 30.7608 18.2392 30.6596 18.2995C30.2694 18.5317 29.8493 18.7096 29.411 18.8281C28.785 18.291 27.9865 17.997 27.1616 18C26.2567 18.0011 25.3876 18.3538 24.7378 18.9836C24.088 19.6135 23.7084 20.4712 23.6792 21.3757C21.8952 21.0912 20.2783 20.16 19.1369 18.7598C19.0681 18.6763 18.9802 18.6106 18.8808 18.5683C18.7813 18.5259 18.6731 18.5081 18.5652 18.5163C18.4575 18.5251 18.3535 18.5601 18.2623 18.6182C18.1711 18.6763 18.0954 18.7557 18.0418 18.8496C17.7668 19.3295 17.6089 19.8674 17.5808 20.4198C17.5528 20.9722 17.6554 21.5234 17.8803 22.0286L17.879 22.0299C17.7779 22.0922 17.6945 22.1794 17.6367 22.2831C17.5789 22.3868 17.5487 22.5036 17.549 22.6224C17.5477 22.7203 17.5536 22.8183 17.5665 22.9154C17.6346 23.7542 18.0064 24.5394 18.6121 25.1237C18.571 25.202 18.5459 25.2877 18.5383 25.3757C18.5307 25.4638 18.5408 25.5525 18.5678 25.6367C18.8319 26.4595 19.3935 27.1541 20.1427 27.5846C19.3815 27.879 18.5597 27.9816 17.7495 27.8835C17.5995 27.8646 17.4476 27.8973 17.3187 27.9762C17.1898 28.0551 17.0915 28.1754 17.04 28.3175C16.9884 28.4595 16.9867 28.6149 17.0351 28.7581C17.0834 28.9013 17.179 29.0237 17.3061 29.1055C18.6995 30.0029 20.3219 30.48 21.9793 30.4798C23.8588 30.501 25.6926 29.9004 27.1955 28.7715C28.6983 27.6425 29.786 26.0486 30.2892 24.2376C30.5246 23.4487 30.6447 22.6299 30.646 21.8066C30.646 21.763 30.646 21.7181 30.6453 21.6732C30.9934 21.2978 31.263 20.8567 31.4384 20.3758C31.6138 19.8948 31.6915 19.3837 31.6668 18.8724ZM29.4624 21.0137C29.3523 21.1439 29.2965 21.3115 29.3068 21.4818C29.3133 21.5918 29.3126 21.7024 29.3126 21.8066C29.3113 22.5023 29.2093 23.1942 29.0099 23.8607C28.5989 25.4016 27.6827 26.76 26.408 27.7184C25.1332 28.6768 23.5738 29.1797 21.9793 29.1465C21.4066 29.1467 20.8358 29.0794 20.2788 28.946C20.9891 28.7171 21.6532 28.3642 22.2404 27.9037C22.3485 27.8185 22.4277 27.702 22.467 27.57C22.5063 27.4381 22.5038 27.2973 22.4598 27.1668C22.4159 27.0364 22.3327 26.9227 22.2216 26.8414C22.1105 26.7602 21.977 26.7153 21.8393 26.7129C21.2852 26.7043 20.7561 26.4809 20.3634 26.0898C20.463 26.071 20.562 26.0475 20.6603 26.0195C20.8043 25.9785 20.9303 25.8903 21.0181 25.769C21.1058 25.6476 21.1502 25.5003 21.144 25.3507C21.1378 25.2011 21.0815 25.0579 20.9841 24.9443C20.8867 24.8306 20.7538 24.753 20.6069 24.724C20.2853 24.6604 19.9826 24.5236 19.7225 24.3241C19.4623 24.1246 19.2517 23.8677 19.1069 23.5736C19.2274 23.59 19.3486 23.6002 19.4702 23.6042C19.6146 23.6064 19.7559 23.5626 19.8738 23.4791C19.9916 23.3957 20.0799 23.2769 20.1258 23.14C20.1698 23.0018 20.1675 22.8531 20.1193 22.7163C20.0712 22.5796 19.9797 22.4623 19.8589 22.3822C19.5656 22.1868 19.3254 21.9218 19.1598 21.6108C18.9941 21.2998 18.9082 20.9526 18.9096 20.6003C18.9096 20.556 18.9109 20.5117 18.9135 20.4681C20.4077 21.8616 22.3458 22.6831 24.3862 22.7878C24.4892 22.7918 24.5918 22.7724 24.6862 22.731C24.7806 22.6896 24.8643 22.6273 24.9311 22.5488C24.9973 22.4696 25.0441 22.376 25.0679 22.2756C25.0917 22.1752 25.0919 22.0706 25.0685 21.9701C25.0303 21.811 25.0109 21.648 25.0105 21.4844C25.0111 20.9141 25.238 20.3673 25.6412 19.964C26.0445 19.5608 26.5913 19.3339 27.1616 19.3333C27.455 19.3326 27.7454 19.3926 28.0145 19.5097C28.2835 19.6268 28.5254 19.7984 28.7247 20.0137C28.8016 20.0964 28.8984 20.1581 29.0059 20.1928C29.1133 20.2276 29.2279 20.2343 29.3387 20.2123C29.6125 20.159 29.8824 20.0872 30.1466 19.9974C29.9664 20.3661 29.7362 20.7081 29.4624 21.0137Z" fill="white"/>
</svg>
